<svg xmlns="http://www.w3.org/2000/svg" xmlns:xlink="http://www.w3.org/1999/xlink" version="1.1" id="Layer_1" x="0px" y="0px" viewBox="0 0 40.9 39.1" style="enable-background:new 0 0 40.9 39.1;" xml:space="preserve">
<style type="text/css">
	.st0{fill:#003459;}
</style>
<g>
	<g transform="scale(3.55556,3.55556)">
		<path class="st0" d="M9.3,3.5c1.2,0,2.2,1,2.2,2.2v3c0,1.2-1,2.2-2.2,2.2h-7C1,11,0,10,0,8.8v-1h5.2v0.4c0,0.2,0.1,0.4,0.3,0.4    c0.1,0,0.1,0.1,0.2,0.1c0.1,0,0.2,0,0.3-0.1l1.2-0.9c0.1-0.1,0.2-0.2,0.2-0.4c0-0.2-0.1-0.3-0.2-0.4L6,6c-0.2-0.1-0.4-0.1-0.5,0    C5.3,6,5.2,6.2,5.2,6.4v0.4H0v-1c0-1.2,1-2.2,2.2-2.2H9.3z M2,2.5c-0.8,0-1.5,0.3-2,0.8v-1C0,1,1,0,2.3,0h7c1.2,0,2.2,1,2.2,2.2v1    c-0.5-0.5-1.2-0.8-2-0.8H2z" fill="#000000"/>
	</g>
</g>
</svg>